<svg width="243" height="243" viewBox="0 0 243 243" fill="none" xmlns="http://www.w3.org/2000/svg">
<rect width="243" height="243" rx="15" fill="#F2EDEB"/>
<path d="M61.1439 81.3284V97.7139L69.3066 124.923L74.7482 219.599H167.251L172.693 124.923L180.856 97.7139V81.3284H61.1439Z" fill="#FFB24A"/>
<path d="M121 81.3284V219.599H167.251L172.693 124.923L180.856 97.7139V81.3284H121Z" fill="#FF9259"/>
<path d="M55 98.6156L63.2143 125.996L68.9476 225.743H173.052L178.786 125.996L187 98.6156V42.5939H55V98.6156ZM174.712 96.8125L166.601 123.85L161.45 213.455H80.5497L75.3993 123.85L67.2883 96.8125V87.4726H174.712V96.8125Z" fill="#DFF5FF"/>
<path d="M121 42.5939V87.4726H174.712V96.8125L166.601 123.849L161.45 213.455H121V225.743H173.052L178.786 125.997L187 98.6156V42.5939H121Z" fill="#BFEBFF"/>
<path d="M148.856 100.391H161.144V112.68H148.856V100.391Z" fill="#FFD23B"/>
<path d="M136.567 120.873H148.855V133.162H136.567V120.873Z" fill="#FFD23B"/>
<path d="M88.7776 152.175H101.066V164.463H88.7776V152.175Z" fill="#FFD23B"/>
<path d="M99.0184 189.449H111.307V201.738H99.0184V189.449Z" fill="#FFD23B"/>
<path d="M114.856 81.328H127.145V180.621H114.856V81.328Z" fill="#FF9259"/>
<path d="M121 81.328H127.144V180.621H121V81.328Z" fill="#FF7169"/>
<path d="M127.145 28.2883H152.187V16H114.856V48.7384H127.145V28.2883Z" fill="#077CCC"/>
<path d="M121 16V48.7384H127.144V28.2883H152.186V16H121Z" fill="#0556B2"/>
<path d="M114.856 42.5939H127.145V87.4726H114.856V42.5939Z" fill="#0556B2"/>
<path d="M121 42.5939H127.144V87.4726H121V42.5939Z" fill="#2D2570"/>
<path d="M148.856 100.391H161.144V112.68H148.856V100.391Z" fill="#FFB24A"/>
</svg>
